<svg width="868" height="420" viewBox="0 0 868 420" fill="none" xmlns="http://www.w3.org/2000/svg">
<path d="M626.914 0.0273438H642.539L617.979 72H603.77L579.453 0.0273438H595.518L611.143 54.666L626.914 0.0273438Z" fill="#927FBF"/>
<path d="M665.244 72H650.303V0.0273438H665.244V72Z" fill="#927FBF"/>
<path d="M698.984 44.8027H717.246L708.262 16.4824L698.984 44.8027ZM699.912 0.0273438H716.904L742.393 72H726.084L721.445 57.2051H694.932L689.951 72H674.229L699.912 0.0273438Z" fill="#927FBF"/>
<path d="M760.361 44.7051V46.3652C760.492 51.9316 761.094 55.8542 762.168 58.1328C763.275 60.3789 765.618 61.502 769.199 61.502C772.747 61.502 775.091 60.265 776.23 57.791C776.914 56.3262 777.256 53.8522 777.256 50.3691V0.0273438H792.295V50.125C792.295 56.2448 791.237 61.0951 789.121 64.6758C785.54 70.7305 779.079 73.7578 769.736 73.7578C760.394 73.7578 754.128 71.3164 750.938 66.4336C747.747 61.5182 746.152 54.8288 746.152 46.3652V44.7051H760.361Z" fill="#927FBF"/>
<path d="M860.459 12.7715H822.373V28.0547H857.334V40.5547H822.373V59.0605H862.217V72H807.676V0.0273438H860.459V12.7715Z" fill="#927FBF"/>
<path d="M512.656 159.803H530.918L521.934 131.482L512.656 159.803ZM513.584 115.027H530.576L556.064 187H539.756L535.117 172.205H508.604L503.623 187H487.9L513.584 115.027Z" fill="#927FBF"/>
<path d="M565.244 115.027H580.283V174.061H615.928V187H565.244V115.027Z" fill="#927FBF"/>
<path d="M692.979 137.928C692.979 134.184 691.986 131.515 690 129.92C688.047 128.325 685.296 127.527 681.748 127.527H667.734V148.719H681.748C685.296 148.719 688.047 147.856 690 146.131C691.986 144.406 692.979 141.671 692.979 137.928ZM707.871 137.83C707.871 146.326 705.723 152.332 701.426 155.848C697.129 159.363 690.993 161.121 683.018 161.121H667.734V187H652.793V115.027H684.141C691.367 115.027 697.129 116.883 701.426 120.594C705.723 124.305 707.871 130.05 707.871 137.83Z" fill="#927FBF"/>
<path d="M731.406 159.803H749.668L740.684 131.482L731.406 159.803ZM732.334 115.027H749.326L774.814 187H758.506L753.867 172.205H727.354L722.373 187H706.65L732.334 115.027Z" fill="#927FBF"/>
<path d="M797.764 187H782.822V115.027H797.764V187ZM807.041 93.25L792.197 107.85H782.139L791.514 93.25H807.041Z" fill="#927FBF"/>
<path d="M822.715 164.783C823.171 168.071 824.066 170.529 825.4 172.156C827.842 175.118 832.025 176.6 837.949 176.6C841.497 176.6 844.378 176.209 846.592 175.428C850.791 173.93 852.891 171.147 852.891 167.078C852.891 164.702 851.849 162.863 849.766 161.561C847.682 160.291 844.411 159.168 839.951 158.191L832.334 156.482C824.847 154.79 819.671 152.951 816.807 150.965C811.956 147.645 809.531 142.452 809.531 135.389C809.531 128.943 811.875 123.589 816.562 119.324C821.25 115.06 828.135 112.928 837.217 112.928C844.801 112.928 851.263 114.946 856.602 118.982C861.973 122.986 864.788 128.813 865.049 136.463H850.596C850.335 132.133 848.447 129.057 844.932 127.234C842.588 126.03 839.674 125.428 836.191 125.428C832.318 125.428 829.225 126.209 826.914 127.771C824.603 129.334 823.447 131.515 823.447 134.314C823.447 136.886 824.587 138.807 826.865 140.076C828.33 140.923 831.455 141.915 836.24 143.055L848.643 146.033C854.079 147.335 858.18 149.077 860.947 151.258C865.244 154.643 867.393 159.542 867.393 165.955C867.393 172.531 864.87 177.999 859.824 182.361C854.811 186.691 847.715 188.855 838.535 188.855C829.16 188.855 821.787 186.723 816.416 182.459C811.045 178.162 808.359 172.27 808.359 164.783H822.715Z" fill="#927FBF"/>
<path d="M515.977 242.527V289.5H529.844C536.94 289.5 541.888 286.001 544.688 279.002C546.217 275.161 546.982 270.587 546.982 265.281C546.982 257.957 545.827 252.342 543.516 248.436C541.237 244.497 536.68 242.527 529.844 242.527H515.977ZM532.383 230.027C536.842 230.092 540.553 230.613 543.516 231.59C548.561 233.25 552.646 236.294 555.771 240.721C558.278 244.301 559.987 248.175 560.898 252.342C561.81 256.508 562.266 260.48 562.266 264.256C562.266 273.826 560.345 281.932 556.504 288.572C551.296 297.524 543.255 302 532.383 302H501.377V230.027H532.383Z" fill="#927FBF"/>
<path d="M626.865 242.771H588.779V258.055H623.74V270.555H588.779V289.061H628.623V302H574.082V230.027H626.865V242.771Z" fill="#927FBF"/>
<path d="M668.174 230.027H683.213V289.061H718.857V302H668.174V230.027Z" fill="#927FBF"/>
<path d="M761.143 291.258C767.1 291.258 771.82 289.061 775.303 284.666C778.818 280.271 780.576 274.021 780.576 265.916C780.576 257.843 778.818 251.609 775.303 247.215C771.82 242.788 767.1 240.574 761.143 240.574C755.186 240.574 750.433 242.771 746.885 247.166C743.337 251.561 741.562 257.811 741.562 265.916C741.562 274.021 743.337 280.271 746.885 284.666C750.433 289.061 755.186 291.258 761.143 291.258ZM795.615 265.916C795.615 278.839 791.986 288.735 784.727 295.604C779.29 301.202 771.429 304.002 761.143 304.002C750.856 304.002 742.995 301.202 737.559 295.604C730.267 288.735 726.621 278.839 726.621 265.916C726.621 252.732 730.267 242.837 737.559 236.229C742.995 230.63 750.856 227.83 761.143 227.83C771.429 227.83 779.29 230.63 784.727 236.229C791.986 242.837 795.615 252.732 795.615 265.916Z" fill="#927FBF"/>
<path d="M818.027 279.783C818.483 283.071 819.378 285.529 820.713 287.156C823.154 290.118 827.337 291.6 833.262 291.6C836.81 291.6 839.691 291.209 841.904 290.428C846.104 288.93 848.203 286.147 848.203 282.078C848.203 279.702 847.161 277.863 845.078 276.561C842.995 275.291 839.723 274.168 835.264 273.191L827.646 271.482C820.16 269.79 814.984 267.951 812.119 265.965C807.269 262.645 804.844 257.452 804.844 250.389C804.844 243.943 807.188 238.589 811.875 234.324C816.562 230.06 823.447 227.928 832.529 227.928C840.114 227.928 846.576 229.946 851.914 233.982C857.285 237.986 860.101 243.813 860.361 251.463H845.908C845.648 247.133 843.76 244.057 840.244 242.234C837.9 241.03 834.987 240.428 831.504 240.428C827.63 240.428 824.538 241.209 822.227 242.771C819.915 244.334 818.76 246.515 818.76 249.314C818.76 251.886 819.899 253.807 822.178 255.076C823.643 255.923 826.768 256.915 831.553 258.055L843.955 261.033C849.391 262.335 853.493 264.077 856.26 266.258C860.557 269.643 862.705 274.542 862.705 280.955C862.705 287.531 860.182 292.999 855.137 297.361C850.124 301.691 843.027 303.855 833.848 303.855C824.473 303.855 817.1 301.723 811.729 297.459C806.357 293.162 803.672 287.27 803.672 279.783H818.027Z" fill="#927FBF"/>
<path d="M48.4961 345.027H70.127V417H56.1133V368.318C56.1133 366.919 56.1296 364.965 56.1621 362.459C56.1947 359.92 56.2109 357.967 56.2109 356.6L42.5879 417H27.9883L14.4629 356.6C14.4629 357.967 14.4792 359.92 14.5117 362.459C14.5443 364.965 14.5605 366.919 14.5605 368.318V417H0.546875V345.027H22.4219L35.5078 401.619L48.4961 345.027Z" fill="#927FBF"/>
<path d="M103.77 389.803H122.031L113.047 361.482L103.77 389.803ZM104.697 345.027H121.689L147.178 417H130.869L126.23 402.205H99.7168L94.7363 417H79.0137L104.697 345.027Z" fill="#927FBF"/>
<path d="M156.357 345.027H171.396V404.061H207.041V417H156.357V345.027Z" fill="#927FBF"/>
<path d="M270.713 357.771H232.627V373.055H267.588V385.555H232.627V404.061H272.471V417H217.93V345.027H270.713V357.771Z" fill="#927FBF"/>
<path d="M283.945 345.027H299.717L328.379 395.271V345.027H342.393V417H327.354L297.959 365.877V417H283.945V345.027Z" fill="#927FBF"/>
<path d="M408.75 345.027V357.771H387.217V417H372.08V357.771H350.449V345.027H408.75Z" fill="#927FBF"/>
<path d="M470.811 357.771H432.725V373.055H467.686V385.555H432.725V404.061H472.568V417H418.027V345.027H470.811V357.771Z" fill="#927FBF"/>
<path d="M484.043 345.027H499.814L528.477 395.271V345.027H542.49V417H527.451L498.057 365.877V417H484.043V345.027Z" fill="#927FBF"/>
<path d="M571.152 357.527V404.5H585.02C592.116 404.5 597.064 401.001 599.863 394.002C601.393 390.161 602.158 385.587 602.158 380.281C602.158 372.957 601.003 367.342 598.691 363.436C596.413 359.497 591.855 357.527 585.02 357.527H571.152ZM587.559 345.027C592.018 345.092 595.729 345.613 598.691 346.59C603.737 348.25 607.822 351.294 610.947 355.721C613.454 359.301 615.163 363.175 616.074 367.342C616.986 371.508 617.441 375.48 617.441 379.256C617.441 388.826 615.521 396.932 611.68 403.572C606.471 412.524 598.431 417 587.559 417H556.553V345.027H587.559Z" fill="#927FBF"/>
<path d="M642.588 417H627.646V345.027H642.588V417Z" fill="#927FBF"/>
<path d="M671.25 357.527V404.5H685.117C692.214 404.5 697.161 401.001 699.961 394.002C701.491 390.161 702.256 385.587 702.256 380.281C702.256 372.957 701.1 367.342 698.789 363.436C696.51 359.497 691.953 357.527 685.117 357.527H671.25ZM687.656 345.027C692.116 345.092 695.827 345.613 698.789 346.59C703.835 348.25 707.92 351.294 711.045 355.721C713.551 359.301 715.26 363.175 716.172 367.342C717.083 371.508 717.539 375.48 717.539 379.256C717.539 388.826 715.618 396.932 711.777 403.572C706.569 412.524 698.529 417 687.656 417H656.65V345.027H687.656Z" fill="#927FBF"/>
<path d="M760.752 406.258C766.709 406.258 771.429 404.061 774.912 399.666C778.428 395.271 780.186 389.021 780.186 380.916C780.186 372.843 778.428 366.609 774.912 362.215C771.429 357.788 766.709 355.574 760.752 355.574C754.795 355.574 750.042 357.771 746.494 362.166C742.946 366.561 741.172 372.811 741.172 380.916C741.172 389.021 742.946 395.271 746.494 399.666C750.042 404.061 754.795 406.258 760.752 406.258ZM795.225 380.916C795.225 393.839 791.595 403.735 784.336 410.604C778.9 416.202 771.038 419.002 760.752 419.002C750.465 419.002 742.604 416.202 737.168 410.604C729.876 403.735 726.23 393.839 726.23 380.916C726.23 367.732 729.876 357.837 737.168 351.229C742.604 345.63 750.465 342.83 760.752 342.83C771.038 342.83 778.9 345.63 784.336 351.229C791.595 357.837 795.225 367.732 795.225 380.916Z" fill="#927FBF"/>
<path d="M817.637 394.783C818.092 398.071 818.988 400.529 820.322 402.156C822.764 405.118 826.947 406.6 832.871 406.6C836.419 406.6 839.3 406.209 841.514 405.428C845.713 403.93 847.812 401.147 847.812 397.078C847.812 394.702 846.771 392.863 844.688 391.561C842.604 390.291 839.333 389.168 834.873 388.191L827.256 386.482C819.769 384.79 814.593 382.951 811.729 380.965C806.878 377.645 804.453 372.452 804.453 365.389C804.453 358.943 806.797 353.589 811.484 349.324C816.172 345.06 823.057 342.928 832.139 342.928C839.723 342.928 846.185 344.946 851.523 348.982C856.895 352.986 859.71 358.813 859.971 366.463H845.518C845.257 362.133 843.369 359.057 839.854 357.234C837.51 356.03 834.596 355.428 831.113 355.428C827.24 355.428 824.147 356.209 821.836 357.771C819.525 359.334 818.369 361.515 818.369 364.314C818.369 366.886 819.508 368.807 821.787 370.076C823.252 370.923 826.377 371.915 831.162 373.055L843.564 376.033C849.001 377.335 853.102 379.077 855.869 381.258C860.166 384.643 862.314 389.542 862.314 395.955C862.314 402.531 859.792 407.999 854.746 412.361C849.733 416.691 842.637 418.855 833.457 418.855C824.082 418.855 816.709 416.723 811.338 412.459C805.967 408.162 803.281 402.27 803.281 394.783H817.637Z" fill="#927FBF"/>
<path d="M626.914 0.0273438H642.539L617.979 72H603.77L579.453 0.0273438H595.518L611.143 54.666L626.914 0.0273438Z" stroke="#927FBF"/>
<path d="M665.244 72H650.303V0.0273438H665.244V72Z" stroke="#927FBF"/>
<path d="M698.984 44.8027H717.246L708.262 16.4824L698.984 44.8027ZM699.912 0.0273438H716.904L742.393 72H726.084L721.445 57.2051H694.932L689.951 72H674.229L699.912 0.0273438Z" stroke="#927FBF"/>
<path d="M760.361 44.7051V46.3652C760.492 51.9316 761.094 55.8542 762.168 58.1328C763.275 60.3789 765.618 61.502 769.199 61.502C772.747 61.502 775.091 60.265 776.23 57.791C776.914 56.3262 777.256 53.8522 777.256 50.3691V0.0273438H792.295V50.125C792.295 56.2448 791.237 61.0951 789.121 64.6758C785.54 70.7305 779.079 73.7578 769.736 73.7578C760.394 73.7578 754.128 71.3164 750.938 66.4336C747.747 61.5182 746.152 54.8288 746.152 46.3652V44.7051H760.361Z" stroke="#927FBF"/>
<path d="M860.459 12.7715H822.373V28.0547H857.334V40.5547H822.373V59.0605H862.217V72H807.676V0.0273438H860.459V12.7715Z" stroke="#927FBF"/>
<path d="M512.656 159.803H530.918L521.934 131.482L512.656 159.803ZM513.584 115.027H530.576L556.064 187H539.756L535.117 172.205H508.604L503.623 187H487.9L513.584 115.027Z" stroke="#927FBF"/>
<path d="M565.244 115.027H580.283V174.061H615.928V187H565.244V115.027Z" stroke="#927FBF"/>
<path d="M692.979 137.928C692.979 134.184 691.986 131.515 690 129.92C688.047 128.325 685.296 127.527 681.748 127.527H667.734V148.719H681.748C685.296 148.719 688.047 147.856 690 146.131C691.986 144.406 692.979 141.671 692.979 137.928ZM707.871 137.83C707.871 146.326 705.723 152.332 701.426 155.848C697.129 159.363 690.993 161.121 683.018 161.121H667.734V187H652.793V115.027H684.141C691.367 115.027 697.129 116.883 701.426 120.594C705.723 124.305 707.871 130.05 707.871 137.83Z" stroke="#927FBF"/>
<path d="M731.406 159.803H749.668L740.684 131.482L731.406 159.803ZM732.334 115.027H749.326L774.814 187H758.506L753.867 172.205H727.354L722.373 187H706.65L732.334 115.027Z" stroke="#927FBF"/>
<path d="M797.764 187H782.822V115.027H797.764V187ZM807.041 93.25L792.197 107.85H782.139L791.514 93.25H807.041Z" stroke="#927FBF"/>
<path d="M822.715 164.783C823.171 168.071 824.066 170.529 825.4 172.156C827.842 175.118 832.025 176.6 837.949 176.6C841.497 176.6 844.378 176.209 846.592 175.428C850.791 173.93 852.891 171.147 852.891 167.078C852.891 164.702 851.849 162.863 849.766 161.561C847.682 160.291 844.411 159.168 839.951 158.191L832.334 156.482C824.847 154.79 819.671 152.951 816.807 150.965C811.956 147.645 809.531 142.452 809.531 135.389C809.531 128.943 811.875 123.589 816.562 119.324C821.25 115.06 828.135 112.928 837.217 112.928C844.801 112.928 851.263 114.946 856.602 118.982C861.973 122.986 864.788 128.813 865.049 136.463H850.596C850.335 132.133 848.447 129.057 844.932 127.234C842.588 126.03 839.674 125.428 836.191 125.428C832.318 125.428 829.225 126.209 826.914 127.771C824.603 129.334 823.447 131.515 823.447 134.314C823.447 136.886 824.587 138.807 826.865 140.076C828.33 140.923 831.455 141.915 836.24 143.055L848.643 146.033C854.079 147.335 858.18 149.077 860.947 151.258C865.244 154.643 867.393 159.542 867.393 165.955C867.393 172.531 864.87 177.999 859.824 182.361C854.811 186.691 847.715 188.855 838.535 188.855C829.16 188.855 821.787 186.723 816.416 182.459C811.045 178.162 808.359 172.27 808.359 164.783H822.715Z" stroke="#927FBF"/>
<path d="M515.977 242.527V289.5H529.844C536.94 289.5 541.888 286.001 544.688 279.002C546.217 275.161 546.982 270.587 546.982 265.281C546.982 257.957 545.827 252.342 543.516 248.436C541.237 244.497 536.68 242.527 529.844 242.527H515.977ZM532.383 230.027C536.842 230.092 540.553 230.613 543.516 231.59C548.561 233.25 552.646 236.294 555.771 240.721C558.278 244.301 559.987 248.175 560.898 252.342C561.81 256.508 562.266 260.48 562.266 264.256C562.266 273.826 560.345 281.932 556.504 288.572C551.296 297.524 543.255 302 532.383 302H501.377V230.027H532.383Z" stroke="#927FBF"/>
<path d="M626.865 242.771H588.779V258.055H623.74V270.555H588.779V289.061H628.623V302H574.082V230.027H626.865V242.771Z" stroke="#927FBF"/>
<path d="M668.174 230.027H683.213V289.061H718.857V302H668.174V230.027Z" stroke="#927FBF"/>
<path d="M761.143 291.258C767.1 291.258 771.82 289.061 775.303 284.666C778.818 280.271 780.576 274.021 780.576 265.916C780.576 257.843 778.818 251.609 775.303 247.215C771.82 242.788 767.1 240.574 761.143 240.574C755.186 240.574 750.433 242.771 746.885 247.166C743.337 251.561 741.562 257.811 741.562 265.916C741.562 274.021 743.337 280.271 746.885 284.666C750.433 289.061 755.186 291.258 761.143 291.258ZM795.615 265.916C795.615 278.839 791.986 288.735 784.727 295.604C779.29 301.202 771.429 304.002 761.143 304.002C750.856 304.002 742.995 301.202 737.559 295.604C730.267 288.735 726.621 278.839 726.621 265.916C726.621 252.732 730.267 242.837 737.559 236.229C742.995 230.63 750.856 227.83 761.143 227.83C771.429 227.83 779.29 230.63 784.727 236.229C791.986 242.837 795.615 252.732 795.615 265.916Z" stroke="#927FBF"/>
<path d="M818.027 279.783C818.483 283.071 819.378 285.529 820.713 287.156C823.154 290.118 827.337 291.6 833.262 291.6C836.81 291.6 839.691 291.209 841.904 290.428C846.104 288.93 848.203 286.147 848.203 282.078C848.203 279.702 847.161 277.863 845.078 276.561C842.995 275.291 839.723 274.168 835.264 273.191L827.646 271.482C820.16 269.79 814.984 267.951 812.119 265.965C807.269 262.645 804.844 257.452 804.844 250.389C804.844 243.943 807.188 238.589 811.875 234.324C816.562 230.06 823.447 227.928 832.529 227.928C840.114 227.928 846.576 229.946 851.914 233.982C857.285 237.986 860.101 243.813 860.361 251.463H845.908C845.648 247.133 843.76 244.057 840.244 242.234C837.9 241.03 834.987 240.428 831.504 240.428C827.63 240.428 824.538 241.209 822.227 242.771C819.915 244.334 818.76 246.515 818.76 249.314C818.76 251.886 819.899 253.807 822.178 255.076C823.643 255.923 826.768 256.915 831.553 258.055L843.955 261.033C849.391 262.335 853.493 264.077 856.26 266.258C860.557 269.643 862.705 274.542 862.705 280.955C862.705 287.531 860.182 292.999 855.137 297.361C850.124 301.691 843.027 303.855 833.848 303.855C824.473 303.855 817.1 301.723 811.729 297.459C806.357 293.162 803.672 287.27 803.672 279.783H818.027Z" stroke="#927FBF"/>
<path d="M48.4961 345.027H70.127V417H56.1133V368.318C56.1133 366.919 56.1296 364.965 56.1621 362.459C56.1947 359.92 56.2109 357.967 56.2109 356.6L42.5879 417H27.9883L14.4629 356.6C14.4629 357.967 14.4792 359.92 14.5117 362.459C14.5443 364.965 14.5605 366.919 14.5605 368.318V417H0.546875V345.027H22.4219L35.5078 401.619L48.4961 345.027Z" stroke="#927FBF"/>
<path d="M103.77 389.803H122.031L113.047 361.482L103.77 389.803ZM104.697 345.027H121.689L147.178 417H130.869L126.23 402.205H99.7168L94.7363 417H79.0137L104.697 345.027Z" stroke="#927FBF"/>
<path d="M156.357 345.027H171.396V404.061H207.041V417H156.357V345.027Z" stroke="#927FBF"/>
<path d="M270.713 357.771H232.627V373.055H267.588V385.555H232.627V404.061H272.471V417H217.93V345.027H270.713V357.771Z" stroke="#927FBF"/>
<path d="M283.945 345.027H299.717L328.379 395.271V345.027H342.393V417H327.354L297.959 365.877V417H283.945V345.027Z" stroke="#927FBF"/>
<path d="M408.75 345.027V357.771H387.217V417H372.08V357.771H350.449V345.027H408.75Z" stroke="#927FBF"/>
<path d="M470.811 357.771H432.725V373.055H467.686V385.555H432.725V404.061H472.568V417H418.027V345.027H470.811V357.771Z" stroke="#927FBF"/>
<path d="M484.043 345.027H499.814L528.477 395.271V345.027H542.49V417H527.451L498.057 365.877V417H484.043V345.027Z" stroke="#927FBF"/>
<path d="M571.152 357.527V404.5H585.02C592.116 404.5 597.064 401.001 599.863 394.002C601.393 390.161 602.158 385.587 602.158 380.281C602.158 372.957 601.003 367.342 598.691 363.436C596.413 359.497 591.855 357.527 585.02 357.527H571.152ZM587.559 345.027C592.018 345.092 595.729 345.613 598.691 346.59C603.737 348.25 607.822 351.294 610.947 355.721C613.454 359.301 615.163 363.175 616.074 367.342C616.986 371.508 617.441 375.48 617.441 379.256C617.441 388.826 615.521 396.932 611.68 403.572C606.471 412.524 598.431 417 587.559 417H556.553V345.027H587.559Z" stroke="#927FBF"/>
<path d="M642.588 417H627.646V345.027H642.588V417Z" stroke="#927FBF"/>
<path d="M671.25 357.527V404.5H685.117C692.214 404.5 697.161 401.001 699.961 394.002C701.491 390.161 702.256 385.587 702.256 380.281C702.256 372.957 701.1 367.342 698.789 363.436C696.51 359.497 691.953 357.527 685.117 357.527H671.25ZM687.656 345.027C692.116 345.092 695.827 345.613 698.789 346.59C703.835 348.25 707.92 351.294 711.045 355.721C713.551 359.301 715.26 363.175 716.172 367.342C717.083 371.508 717.539 375.48 717.539 379.256C717.539 388.826 715.618 396.932 711.777 403.572C706.569 412.524 698.529 417 687.656 417H656.65V345.027H687.656Z" stroke="#927FBF"/>
<path d="M760.752 406.258C766.709 406.258 771.429 404.061 774.912 399.666C778.428 395.271 780.186 389.021 780.186 380.916C780.186 372.843 778.428 366.609 774.912 362.215C771.429 357.788 766.709 355.574 760.752 355.574C754.795 355.574 750.042 357.771 746.494 362.166C742.946 366.561 741.172 372.811 741.172 380.916C741.172 389.021 742.946 395.271 746.494 399.666C750.042 404.061 754.795 406.258 760.752 406.258ZM795.225 380.916C795.225 393.839 791.595 403.735 784.336 410.604C778.9 416.202 771.038 419.002 760.752 419.002C750.465 419.002 742.604 416.202 737.168 410.604C729.876 403.735 726.23 393.839 726.23 380.916C726.23 367.732 729.876 357.837 737.168 351.229C742.604 345.63 750.465 342.83 760.752 342.83C771.038 342.83 778.9 345.63 784.336 351.229C791.595 357.837 795.225 367.732 795.225 380.916Z" stroke="#927FBF"/>
<path d="M817.637 394.783C818.092 398.071 818.988 400.529 820.322 402.156C822.764 405.118 826.947 406.6 832.871 406.6C836.419 406.6 839.3 406.209 841.514 405.428C845.713 403.93 847.812 401.147 847.812 397.078C847.812 394.702 846.771 392.863 844.688 391.561C842.604 390.291 839.333 389.168 834.873 388.191L827.256 386.482C819.769 384.79 814.593 382.951 811.729 380.965C806.878 377.645 804.453 372.452 804.453 365.389C804.453 358.943 806.797 353.589 811.484 349.324C816.172 345.06 823.057 342.928 832.139 342.928C839.723 342.928 846.185 344.946 851.523 348.982C856.895 352.986 859.71 358.813 859.971 366.463H845.518C845.257 362.133 843.369 359.057 839.854 357.234C837.51 356.03 834.596 355.428 831.113 355.428C827.24 355.428 824.147 356.209 821.836 357.771C819.525 359.334 818.369 361.515 818.369 364.314C818.369 366.886 819.508 368.807 821.787 370.076C823.252 370.923 826.377 371.915 831.162 373.055L843.564 376.033C849.001 377.335 853.102 379.077 855.869 381.258C860.166 384.643 862.314 389.542 862.314 395.955C862.314 402.531 859.792 407.999 854.746 412.361C849.733 416.691 842.637 418.855 833.457 418.855C824.082 418.855 816.709 416.723 811.338 412.459C805.967 408.162 803.281 402.27 803.281 394.783H817.637Z" stroke="#927FBF"/>
</svg>
