<svg width="872" height="424" fill="none" xmlns="http://www.w3.org/2000/svg"><mask id="a" maskUnits="userSpaceOnUse" x=".547" y=".027" width="871" height="423" fill="#000"><path fill="#fff" d="M.547.027h871v423h-871z"/><path d="M628.914 2.027h15.625L619.979 74H605.77L581.453 2.027h16.065l15.625 54.639 15.771-54.639zM667.244 74h-14.941V2.027h14.941V74zM700.984 46.803h18.262l-8.984-28.32-9.278 28.32zm.928-44.776h16.992L744.393 74h-16.309l-4.639-14.795h-26.513L691.951 74h-15.722l25.683-71.973zM762.361 46.705v1.66c.131 5.567.733 9.49 1.807 11.768 1.107 2.246 3.45 3.369 7.031 3.369 3.548 0 5.892-1.237 7.031-3.711.684-1.465 1.026-3.939 1.026-7.422V2.027h15.039v50.098c0 6.12-1.058 10.97-3.174 14.55-3.581 6.056-10.042 9.083-19.385 9.083-9.342 0-15.608-2.442-18.798-7.324-3.191-4.916-4.786-11.605-4.786-20.069v-1.66h14.209zM862.459 14.771h-38.086v15.284h34.961v12.5h-34.961V61.06h39.844V74h-54.541V2.027h52.783v12.744zM514.656 161.803h18.262l-8.984-28.321-9.278 28.321zm.928-44.776h16.992L558.064 189h-16.308l-4.639-14.795h-26.513L505.623 189H489.9l25.684-71.973zM567.244 117.027h15.039v59.034h35.645V189h-50.684v-71.973zM694.979 139.928c0-3.744-.993-6.413-2.979-8.008-1.953-1.595-4.704-2.393-8.252-2.393h-14.014v21.192h14.014c3.548 0 6.299-.863 8.252-2.588 1.986-1.725 2.979-4.46 2.979-8.203zm14.892-.098c0 8.496-2.148 14.502-6.445 18.018-4.297 3.515-10.433 5.273-18.408 5.273h-15.284V189h-14.941v-71.973h31.348c7.226 0 12.988 1.856 17.285 5.567 4.297 3.711 6.445 9.456 6.445 17.236zM733.406 161.803h18.262l-8.984-28.321-9.278 28.321zm.928-44.776h16.992L776.814 189h-16.308l-4.639-14.795h-26.513L724.373 189H708.65l25.684-71.973zM799.764 189h-14.942v-71.973h14.942V189zm9.277-93.75l-14.844 14.6h-10.058l9.375-14.6h15.527zM824.715 166.783c.456 3.288 1.351 5.746 2.685 7.373 2.442 2.962 6.625 4.444 12.549 4.444 3.548 0 6.429-.391 8.643-1.172 4.199-1.498 6.299-4.281 6.299-8.35 0-2.376-1.042-4.215-3.125-5.517-2.084-1.27-5.355-2.393-9.815-3.37l-7.617-1.709c-7.487-1.692-12.663-3.531-15.527-5.517-4.851-3.32-7.276-8.513-7.276-15.576 0-6.446 2.344-11.8 7.031-16.065 4.688-4.264 11.573-6.396 20.655-6.396 7.584 0 14.046 2.018 19.385 6.054 5.371 4.004 8.186 9.831 8.447 17.481h-14.453c-.261-4.33-2.149-7.406-5.664-9.229-2.344-1.204-5.258-1.806-8.741-1.806-3.873 0-6.966.781-9.277 2.343-2.311 1.563-3.467 3.744-3.467 6.543 0 2.572 1.14 4.493 3.418 5.762 1.465.847 4.59 1.839 9.375 2.979l12.403 2.978c5.436 1.302 9.537 3.044 12.304 5.225 4.297 3.385 6.446 8.284 6.446 14.697 0 6.576-2.523 12.044-7.569 16.406-5.013 4.33-12.109 6.494-21.289 6.494-9.375 0-16.748-2.132-22.119-6.396-5.371-4.297-8.057-10.189-8.057-17.676h14.356zM517.977 244.527V291.5h13.867c7.096 0 12.044-3.499 14.844-10.498 1.529-3.841 2.294-8.415 2.294-13.721 0-7.324-1.155-12.939-3.466-16.845-2.279-3.939-6.836-5.909-13.672-5.909h-13.867zm16.406-12.5c4.459.065 8.17.586 11.133 1.563 5.045 1.66 9.13 4.704 12.255 9.131 2.507 3.58 4.216 7.454 5.127 11.621.912 4.166 1.368 8.138 1.368 11.914 0 9.57-1.921 17.676-5.762 24.316-5.208 8.952-13.249 13.428-24.121 13.428h-31.006v-71.973h31.006zM628.865 244.771h-38.086v15.284h34.961v12.5h-34.961v18.506h39.844V304h-54.541v-71.973h52.783v12.744zM670.174 232.027h15.039v59.034h35.644V304h-50.683v-71.973zM763.143 293.258c5.957 0 10.677-2.197 14.16-6.592 3.515-4.395 5.273-10.645 5.273-18.75 0-8.073-1.758-14.307-5.273-18.701-3.483-4.427-8.203-6.641-14.16-6.641-5.957 0-10.71 2.197-14.258 6.592-3.548 4.395-5.323 10.645-5.323 18.75s1.775 14.355 5.323 18.75c3.548 4.395 8.301 6.592 14.258 6.592zm34.472-25.342c0 12.923-3.629 22.819-10.888 29.688-5.437 5.598-13.298 8.398-23.584 8.398-10.287 0-18.148-2.8-23.584-8.398-7.292-6.869-10.938-16.765-10.938-29.688 0-13.184 3.646-23.079 10.938-29.687 5.436-5.599 13.297-8.399 23.584-8.399 10.286 0 18.147 2.8 23.584 8.399 7.259 6.608 10.888 16.503 10.888 29.687zM820.027 281.783c.456 3.288 1.351 5.746 2.686 7.373 2.441 2.962 6.624 4.444 12.549 4.444 3.548 0 6.429-.391 8.642-1.172 4.2-1.498 6.299-4.281 6.299-8.35 0-2.376-1.042-4.215-3.125-5.517-2.083-1.27-5.355-2.393-9.814-3.37l-7.618-1.709c-7.486-1.692-12.662-3.531-15.527-5.517-4.85-3.32-7.275-8.513-7.275-15.576 0-6.446 2.344-11.8 7.031-16.065 4.687-4.264 11.572-6.396 20.654-6.396 7.585 0 14.047 2.018 19.385 6.054 5.371 4.004 8.187 9.831 8.447 17.481h-14.453c-.26-4.33-2.148-7.406-5.664-9.229-2.344-1.204-5.257-1.806-8.74-1.806-3.874 0-6.966.781-9.277 2.343-2.312 1.563-3.467 3.744-3.467 6.543 0 2.572 1.139 4.493 3.418 5.762 1.465.847 4.59 1.839 9.375 2.979l12.402 2.978c5.436 1.302 9.538 3.044 12.305 5.225 4.297 3.385 6.445 8.284 6.445 14.697 0 6.576-2.523 12.044-7.568 16.406-5.013 4.33-12.11 6.494-21.289 6.494-9.375 0-16.748-2.132-22.119-6.396-5.372-4.297-8.057-10.189-8.057-17.676h14.355zM50.496 347.027h21.631V419H58.113v-48.682c0-1.399.017-3.353.05-5.859.032-2.539.048-4.492.048-5.859L44.588 419h-14.6l-13.525-60.4c0 1.367.016 3.32.049 5.859.032 2.506.049 4.46.049 5.859V419H2.547v-71.973h21.875l13.086 56.592 12.988-56.592zM105.77 391.803h18.261l-8.984-28.321-9.277 28.321zm.927-44.776h16.992L149.178 419h-16.309l-4.639-14.795h-26.513L96.737 419H81.013l25.683-71.973zM158.357 347.027h15.039v59.034h35.645V419h-50.684v-71.973zM272.713 359.771h-38.086v15.284h34.961v12.5h-34.961v18.506h39.844V419H219.93v-71.973h52.783v12.744zM285.945 347.027h15.772l28.662 50.244v-50.244h14.014V419h-15.039l-29.395-51.123V419h-14.014v-71.973zM410.75 347.027v12.744h-21.533V419H374.08v-59.229h-21.631v-12.744h58.301zM472.811 359.771h-38.086v15.284h34.961v12.5h-34.961v18.506h39.843V419h-54.541v-71.973h52.784v12.744zM486.043 347.027h15.771l28.663 50.244v-50.244h14.013V419h-15.039l-29.394-51.123V419h-14.014v-71.973zM573.152 359.527V406.5h13.868c7.096 0 12.044-3.499 14.843-10.498 1.53-3.841 2.295-8.415 2.295-13.721 0-7.324-1.155-12.939-3.467-16.845-2.278-3.939-6.836-5.909-13.671-5.909h-13.868zm16.407-12.5c4.459.065 8.17.586 11.132 1.563 5.046 1.66 9.131 4.704 12.256 9.131 2.507 3.58 4.216 7.454 5.127 11.621.912 4.166 1.367 8.138 1.367 11.914 0 9.57-1.92 17.676-5.761 24.316-5.209 8.952-13.249 13.428-24.121 13.428h-31.006v-71.973h31.006zM644.588 419h-14.942v-71.973h14.942V419zM673.25 359.527V406.5h13.867c7.097 0 12.044-3.499 14.844-10.498 1.53-3.841 2.295-8.415 2.295-13.721 0-7.324-1.156-12.939-3.467-16.845-2.279-3.939-6.836-5.909-13.672-5.909H673.25zm16.406-12.5c4.46.065 8.171.586 11.133 1.563 5.046 1.66 9.131 4.704 12.256 9.131 2.506 3.58 4.215 7.454 5.127 11.621.911 4.166 1.367 8.138 1.367 11.914 0 9.57-1.921 17.676-5.762 24.316-5.208 8.952-13.248 13.428-24.121 13.428H658.65v-71.973h31.006zM762.752 408.258c5.957 0 10.677-2.197 14.16-6.592 3.516-4.395 5.274-10.645 5.274-18.75 0-8.073-1.758-14.307-5.274-18.701-3.483-4.427-8.203-6.641-14.16-6.641-5.957 0-10.71 2.197-14.258 6.592-3.548 4.395-5.322 10.645-5.322 18.75s1.774 14.355 5.322 18.75 8.301 6.592 14.258 6.592zm34.473-25.342c0 12.923-3.63 22.819-10.889 29.688-5.436 5.598-13.298 8.398-23.584 8.398-10.287 0-18.148-2.8-23.584-8.398-7.292-6.869-10.938-16.765-10.938-29.688 0-13.184 3.646-23.079 10.938-29.687 5.436-5.599 13.297-8.399 23.584-8.399 10.286 0 18.148 2.8 23.584 8.399 7.259 6.608 10.889 16.503 10.889 29.687zM819.637 396.783c.455 3.288 1.351 5.746 2.685 7.373 2.442 2.962 6.625 4.444 12.549 4.444 3.548 0 6.429-.391 8.643-1.172 4.199-1.498 6.298-4.281 6.298-8.35 0-2.376-1.041-4.215-3.124-5.517-2.084-1.27-5.355-2.393-9.815-3.37l-7.617-1.709c-7.487-1.692-12.663-3.531-15.527-5.517-4.851-3.32-7.276-8.513-7.276-15.576 0-6.446 2.344-11.8 7.031-16.065 4.688-4.264 11.573-6.396 20.655-6.396 7.584 0 14.046 2.018 19.384 6.054 5.372 4.004 8.187 9.831 8.448 17.481h-14.453c-.261-4.33-2.149-7.406-5.664-9.229-2.344-1.204-5.258-1.806-8.741-1.806-3.873 0-6.966.781-9.277 2.343-2.311 1.563-3.467 3.744-3.467 6.543 0 2.572 1.139 4.493 3.418 5.762 1.465.847 4.59 1.839 9.375 2.979l12.402 2.978c5.437 1.302 9.538 3.044 12.305 5.225 4.297 3.385 6.445 8.284 6.445 14.697 0 6.576-2.522 12.044-7.568 16.406-5.013 4.33-12.109 6.494-21.289 6.494-9.375 0-16.748-2.132-22.119-6.396-5.371-4.297-8.057-10.189-8.057-17.676h14.356z"/></mask><path d="M628.914 2.027h15.625L619.979 74H605.77L581.453 2.027h16.065l15.625 54.639 15.771-54.639zM667.244 74h-14.941V2.027h14.941V74zM700.984 46.803h18.262l-8.984-28.32-9.278 28.32zm.928-44.776h16.992L744.393 74h-16.309l-4.639-14.795h-26.513L691.951 74h-15.722l25.683-71.973zM762.361 46.705v1.66c.131 5.567.733 9.49 1.807 11.768 1.107 2.246 3.45 3.369 7.031 3.369 3.548 0 5.892-1.237 7.031-3.711.684-1.465 1.026-3.939 1.026-7.422V2.027h15.039v50.098c0 6.12-1.058 10.97-3.174 14.55-3.581 6.056-10.042 9.083-19.385 9.083-9.342 0-15.608-2.442-18.798-7.324-3.191-4.916-4.786-11.605-4.786-20.069v-1.66h14.209zM862.459 14.771h-38.086v15.284h34.961v12.5h-34.961V61.06h39.844V74h-54.541V2.027h52.783v12.744zM514.656 161.803h18.262l-8.984-28.321-9.278 28.321zm.928-44.776h16.992L558.064 189h-16.308l-4.639-14.795h-26.513L505.623 189H489.9l25.684-71.973zM567.244 117.027h15.039v59.034h35.645V189h-50.684v-71.973zM694.979 139.928c0-3.744-.993-6.413-2.979-8.008-1.953-1.595-4.704-2.393-8.252-2.393h-14.014v21.192h14.014c3.548 0 6.299-.863 8.252-2.588 1.986-1.725 2.979-4.46 2.979-8.203zm14.892-.098c0 8.496-2.148 14.502-6.445 18.018-4.297 3.515-10.433 5.273-18.408 5.273h-15.284V189h-14.941v-71.973h31.348c7.226 0 12.988 1.856 17.285 5.567 4.297 3.711 6.445 9.456 6.445 17.236zM733.406 161.803h18.262l-8.984-28.321-9.278 28.321zm.928-44.776h16.992L776.814 189h-16.308l-4.639-14.795h-26.513L724.373 189H708.65l25.684-71.973zM799.764 189h-14.942v-71.973h14.942V189zm9.277-93.75l-14.844 14.6h-10.058l9.375-14.6h15.527zM824.715 166.783c.456 3.288 1.351 5.746 2.685 7.373 2.442 2.962 6.625 4.444 12.549 4.444 3.548 0 6.429-.391 8.643-1.172 4.199-1.498 6.299-4.281 6.299-8.35 0-2.376-1.042-4.215-3.125-5.517-2.084-1.27-5.355-2.393-9.815-3.37l-7.617-1.709c-7.487-1.692-12.663-3.531-15.527-5.517-4.851-3.32-7.276-8.513-7.276-15.576 0-6.446 2.344-11.8 7.031-16.065 4.688-4.264 11.573-6.396 20.655-6.396 7.584 0 14.046 2.018 19.385 6.054 5.371 4.004 8.186 9.831 8.447 17.481h-14.453c-.261-4.33-2.149-7.406-5.664-9.229-2.344-1.204-5.258-1.806-8.741-1.806-3.873 0-6.966.781-9.277 2.343-2.311 1.563-3.467 3.744-3.467 6.543 0 2.572 1.14 4.493 3.418 5.762 1.465.847 4.59 1.839 9.375 2.979l12.403 2.978c5.436 1.302 9.537 3.044 12.304 5.225 4.297 3.385 6.446 8.284 6.446 14.697 0 6.576-2.523 12.044-7.569 16.406-5.013 4.33-12.109 6.494-21.289 6.494-9.375 0-16.748-2.132-22.119-6.396-5.371-4.297-8.057-10.189-8.057-17.676h14.356zM517.977 244.527V291.5h13.867c7.096 0 12.044-3.499 14.844-10.498 1.529-3.841 2.294-8.415 2.294-13.721 0-7.324-1.155-12.939-3.466-16.845-2.279-3.939-6.836-5.909-13.672-5.909h-13.867zm16.406-12.5c4.459.065 8.17.586 11.133 1.563 5.045 1.66 9.13 4.704 12.255 9.131 2.507 3.58 4.216 7.454 5.127 11.621.912 4.166 1.368 8.138 1.368 11.914 0 9.57-1.921 17.676-5.762 24.316-5.208 8.952-13.249 13.428-24.121 13.428h-31.006v-71.973h31.006zM628.865 244.771h-38.086v15.284h34.961v12.5h-34.961v18.506h39.844V304h-54.541v-71.973h52.783v12.744zM670.174 232.027h15.039v59.034h35.644V304h-50.683v-71.973zM763.143 293.258c5.957 0 10.677-2.197 14.16-6.592 3.515-4.395 5.273-10.645 5.273-18.75 0-8.073-1.758-14.307-5.273-18.701-3.483-4.427-8.203-6.641-14.16-6.641-5.957 0-10.71 2.197-14.258 6.592-3.548 4.395-5.323 10.645-5.323 18.75s1.775 14.355 5.323 18.75c3.548 4.395 8.301 6.592 14.258 6.592zm34.472-25.342c0 12.923-3.629 22.819-10.888 29.688-5.437 5.598-13.298 8.398-23.584 8.398-10.287 0-18.148-2.8-23.584-8.398-7.292-6.869-10.938-16.765-10.938-29.688 0-13.184 3.646-23.079 10.938-29.687 5.436-5.599 13.297-8.399 23.584-8.399 10.286 0 18.147 2.8 23.584 8.399 7.259 6.608 10.888 16.503 10.888 29.687zM820.027 281.783c.456 3.288 1.351 5.746 2.686 7.373 2.441 2.962 6.624 4.444 12.549 4.444 3.548 0 6.429-.391 8.642-1.172 4.2-1.498 6.299-4.281 6.299-8.35 0-2.376-1.042-4.215-3.125-5.517-2.083-1.27-5.355-2.393-9.814-3.37l-7.618-1.709c-7.486-1.692-12.662-3.531-15.527-5.517-4.85-3.32-7.275-8.513-7.275-15.576 0-6.446 2.344-11.8 7.031-16.065 4.687-4.264 11.572-6.396 20.654-6.396 7.585 0 14.047 2.018 19.385 6.054 5.371 4.004 8.187 9.831 8.447 17.481h-14.453c-.26-4.33-2.148-7.406-5.664-9.229-2.344-1.204-5.257-1.806-8.74-1.806-3.874 0-6.966.781-9.277 2.343-2.312 1.563-3.467 3.744-3.467 6.543 0 2.572 1.139 4.493 3.418 5.762 1.465.847 4.59 1.839 9.375 2.979l12.402 2.978c5.436 1.302 9.538 3.044 12.305 5.225 4.297 3.385 6.445 8.284 6.445 14.697 0 6.576-2.523 12.044-7.568 16.406-5.013 4.33-12.11 6.494-21.289 6.494-9.375 0-16.748-2.132-22.119-6.396-5.372-4.297-8.057-10.189-8.057-17.676h14.355zM50.496 347.027h21.631V419H58.113v-48.682c0-1.399.017-3.353.05-5.859.032-2.539.048-4.492.048-5.859L44.588 419h-14.6l-13.525-60.4c0 1.367.016 3.32.049 5.859.032 2.506.049 4.46.049 5.859V419H2.547v-71.973h21.875l13.086 56.592 12.988-56.592zM105.77 391.803h18.261l-8.984-28.321-9.277 28.321zm.927-44.776h16.992L149.178 419h-16.309l-4.639-14.795h-26.513L96.737 419H81.013l25.683-71.973zM158.357 347.027h15.039v59.034h35.645V419h-50.684v-71.973zM272.713 359.771h-38.086v15.284h34.961v12.5h-34.961v18.506h39.844V419H219.93v-71.973h52.783v12.744zM285.945 347.027h15.772l28.662 50.244v-50.244h14.014V419h-15.039l-29.395-51.123V419h-14.014v-71.973zM410.75 347.027v12.744h-21.533V419H374.08v-59.229h-21.631v-12.744h58.301zM472.811 359.771h-38.086v15.284h34.961v12.5h-34.961v18.506h39.843V419h-54.541v-71.973h52.784v12.744zM486.043 347.027h15.771l28.663 50.244v-50.244h14.013V419h-15.039l-29.394-51.123V419h-14.014v-71.973zM573.152 359.527V406.5h13.868c7.096 0 12.044-3.499 14.843-10.498 1.53-3.841 2.295-8.415 2.295-13.721 0-7.324-1.155-12.939-3.467-16.845-2.278-3.939-6.836-5.909-13.671-5.909h-13.868zm16.407-12.5c4.459.065 8.17.586 11.132 1.563 5.046 1.66 9.131 4.704 12.256 9.131 2.507 3.58 4.216 7.454 5.127 11.621.912 4.166 1.367 8.138 1.367 11.914 0 9.57-1.92 17.676-5.761 24.316-5.209 8.952-13.249 13.428-24.121 13.428h-31.006v-71.973h31.006zM644.588 419h-14.942v-71.973h14.942V419zM673.25 359.527V406.5h13.867c7.097 0 12.044-3.499 14.844-10.498 1.53-3.841 2.295-8.415 2.295-13.721 0-7.324-1.156-12.939-3.467-16.845-2.279-3.939-6.836-5.909-13.672-5.909H673.25zm16.406-12.5c4.46.065 8.171.586 11.133 1.563 5.046 1.66 9.131 4.704 12.256 9.131 2.506 3.58 4.215 7.454 5.127 11.621.911 4.166 1.367 8.138 1.367 11.914 0 9.57-1.921 17.676-5.762 24.316-5.208 8.952-13.248 13.428-24.121 13.428H658.65v-71.973h31.006zM762.752 408.258c5.957 0 10.677-2.197 14.16-6.592 3.516-4.395 5.274-10.645 5.274-18.75 0-8.073-1.758-14.307-5.274-18.701-3.483-4.427-8.203-6.641-14.16-6.641-5.957 0-10.71 2.197-14.258 6.592-3.548 4.395-5.322 10.645-5.322 18.75s1.774 14.355 5.322 18.75 8.301 6.592 14.258 6.592zm34.473-25.342c0 12.923-3.63 22.819-10.889 29.688-5.436 5.598-13.298 8.398-23.584 8.398-10.287 0-18.148-2.8-23.584-8.398-7.292-6.869-10.938-16.765-10.938-29.688 0-13.184 3.646-23.079 10.938-29.687 5.436-5.599 13.297-8.399 23.584-8.399 10.286 0 18.148 2.8 23.584 8.399 7.259 6.608 10.889 16.503 10.889 29.687zM819.637 396.783c.455 3.288 1.351 5.746 2.685 7.373 2.442 2.962 6.625 4.444 12.549 4.444 3.548 0 6.429-.391 8.643-1.172 4.199-1.498 6.298-4.281 6.298-8.35 0-2.376-1.041-4.215-3.124-5.517-2.084-1.27-5.355-2.393-9.815-3.37l-7.617-1.709c-7.487-1.692-12.663-3.531-15.527-5.517-4.851-3.32-7.276-8.513-7.276-15.576 0-6.446 2.344-11.8 7.031-16.065 4.688-4.264 11.573-6.396 20.655-6.396 7.584 0 14.046 2.018 19.384 6.054 5.372 4.004 8.187 9.831 8.448 17.481h-14.453c-.261-4.33-2.149-7.406-5.664-9.229-2.344-1.204-5.258-1.806-8.741-1.806-3.873 0-6.966.781-9.277 2.343-2.311 1.563-3.467 3.744-3.467 6.543 0 2.572 1.139 4.493 3.418 5.762 1.465.847 4.59 1.839 9.375 2.979l12.402 2.978c5.437 1.302 9.538 3.044 12.305 5.225 4.297 3.385 6.445 8.284 6.445 14.697 0 6.576-2.522 12.044-7.568 16.406-5.013 4.33-12.109 6.494-21.289 6.494-9.375 0-16.748-2.132-22.119-6.396-5.371-4.297-8.057-10.189-8.057-17.676h14.356z" stroke="#927FBF" stroke-width="4" mask="url(#a)"/></svg>